HIERARCHY
ROOT Root
{
	OFFSET 0.00000 0.00000 0.00000
	CHANNELS 6 Xposition Yposition Zposition Zrotation Xrotation Yrotation
	JOINT Hip
	{
		OFFSET 0 0 0	
		CHANNELS 3 Zrotation Xrotation Yrotation
		JOINT Tummy
		{
			OFFSET 0 0.04 0	
			CHANNELS 3 Zrotation Xrotation Yrotation
			JOINT ChestBottom
			{
				OFFSET 0 0.194 0	
				CHANNELS 3 Zrotation Xrotation Yrotation
				JOINT ChestTop
				{
					OFFSET 0 0.166 0	
					CHANNELS 3 Zrotation Xrotation Yrotation
					JOINT LeftCollar
					{
						OFFSET 0 0.1 0	
						CHANNELS 3 Zrotation Xrotation Yrotation
						JOINT LeftUpperArm
						{
							OFFSET 0.156 -0.02 0.03	
							CHANNELS 3 Zrotation Xrotation Yrotation
							JOINT LeftForeArm
							{
								OFFSET 0.035 -0.27 -0.01	
								CHANNELS 3 Zrotation Xrotation Yrotation
								JOINT LeftHand
								{
									OFFSET 0.01 -0.27 0.01	
									CHANNELS 3 Zrotation Xrotation Yrotation
									End Site
									{
										OFFSET 0 -0.15 0
									}
								}
							}
						}
					}
					JOINT RightCollar
					{
						OFFSET 0 0.1 0	
						CHANNELS 3 Zrotation Xrotation Yrotation
						JOINT RightUpperArm
						{
							OFFSET -0.156 -0.02 0.03	
							CHANNELS 3 Zrotation Xrotation Yrotation
							JOINT RightForeArm
							{
								OFFSET -0.035 -0.27 -0.01	
								CHANNELS 3 Zrotation Xrotation Yrotation
								JOINT RightHand
								{
									OFFSET -0.01 -0.27 0.01	
									CHANNELS 3 Zrotation Xrotation Yrotation
									End Site
									{
										OFFSET 0 -0.15 0
									}
								}
							}
						}
					}
					JOINT Neck
					{
						OFFSET 0 0.1 0	
						CHANNELS 3 Zrotation Xrotation Yrotation
						JOINT Head
						{
							OFFSET 0 0.127 0.03	
							CHANNELS 3 Zrotation Xrotation Yrotation
							End Site
							{
								OFFSET 0 0.127 0.03
							}
						}
					}
				}
			}
		}
	}
	JOINT LeftHip
	{
		OFFSET 0 0 0	
		CHANNELS 3 Zrotation Xrotation Yrotation
		JOINT LeftThigh
		{
			OFFSET 0.088 -0.06 0	
			CHANNELS 3 Zrotation Xrotation Yrotation
			JOINT LeftLowerLeg
			{
				OFFSET 0 -0.39 0.02	
				CHANNELS 3 Zrotation Xrotation Yrotation
				JOINT LeftFootTop
				{
					OFFSET 0 -0.43 -0.02	
					CHANNELS 3 Zrotation Xrotation Yrotation
					JOINT LeftFootFront
					{
						OFFSET 0 -0.07 0.085	
						CHANNELS 3 Zrotation Xrotation Yrotation
						End Site
						{
							OFFSET 0 -0.005 0.09
						}
					}
				}
				JOINT LeftHeel
				{
					OFFSET 0 -0.43 -0.02	
					CHANNELS 3 Zrotation Xrotation Yrotation
					End Site
					{
						OFFSET 0 -0.075 -0.05
					}
				}
			}
		}
	}
	JOINT RightHip
	{
		OFFSET 0 0 0	
		CHANNELS 3 Zrotation Xrotation Yrotation
		JOINT RightThigh
		{
			OFFSET -0.088 -0.06 0	
			CHANNELS 3 Zrotation Xrotation Yrotation
			JOINT RightLowerLeg
			{
				OFFSET 0 -0.39 0.02	
				CHANNELS 3 Zrotation Xrotation Yrotation
				JOINT RightFootTop
				{
					OFFSET 0 -0.43 -0.02	
					CHANNELS 3 Zrotation Xrotation Yrotation
					JOINT RightFootFront
					{
						OFFSET 0 -0.07 0.085	
						CHANNELS 3 Zrotation Xrotation Yrotation
						End Site
						{
							OFFSET 0 -0.005 0.09
						}
					}
				}
				JOINT RightHeel
				{
					OFFSET 0 -0.43 -0.02	
					CHANNELS 3 Zrotation Xrotation Yrotation
					End Site
					{
						OFFSET 0 -0.075 -0.05
					}
				}
			}
		}
	}
}
MOTION
Frames: 10
Frame Time: 0.008
0 0.95799 0 -0 0 -0 -0.27277 -0.88974 -7.5963 -0.16695 0.87831 1.9706 -0.16695 0.87831 1.9706 -0.13821 0.73817 1.6551 -0 0 -0 1.2745 -1.8762 -5.1038 -0.23741 -0.13589 -1.5326 -0 0 -0 -0 0 -0 -0.75747 -1.8658 -1.5602 0.96228 0.53102 3.2724 -0 0 -0 -0.32292 5.8049 0.28295 -0.32292 5.8049 0.28295 -0.27277 -0.88974 -7.5963 -2.932 -0.0011699 2.6399 -2.2505 -2.9153 2.3615 -0 0 -0 -0 0 -0 -0 0 -0 -0.27277 -0.88974 -7.5963 4.9699 2.4372 1.5463 -0.16942 1.9019 8.9604 -0 0 -0 -0 0 -0 -0 0 -0 
0 0.95799 0 -0 0 -0 -0.27175 -0.89065 -7.5949 -0.16657 0.87376 1.9703 -0.16657 0.87376 1.9703 -0.1379 0.73435 1.6548 -0 0 -0 1.2722 -1.8641 -5.1013 -0.23815 -0.13349 -1.5314 -0 0 -0 -0 0 -0 -0.75668 -1.8505 -1.5622 0.96323 0.52996 3.2704 -0 0 -0 -0.32252 5.8206 0.2749 -0.32252 5.8206 0.2749 -0.27175 -0.89065 -7.5949 -2.9319 0.00047791 2.6411 -2.2508 -2.9168 2.3594 -0 0 -0 -0 0 -0 -0 0 -0 -0.27175 -0.89065 -7.5949 4.9709 2.4383 1.5425 -0.17054 1.9023 8.9642 -0 0 -0 -0 0 -0 -0 0 -0 
0 0.95799 0 -0 0 -0 -0.2705 -0.89177 -7.5932 -0.1661 0.86822 1.9698 -0.1661 0.86822 1.9698 -0.13752 0.72969 1.6545 -0 0 -0 1.2693 -1.8494 -5.0983 -0.23911 -0.13062 -1.5298 -0 0 -0 -0 0 -0 -0.75568 -1.8319 -1.5648 0.96434 0.52859 3.268 -0 0 -0 -0.32203 5.8399 0.26475 -0.32203 5.8399 0.26475 -0.2705 -0.89177 -7.5932 -2.9317 0.0025304 2.6425 -2.2513 -2.9186 2.3568 -0 0 -0 -0 0 -0 -0 0 -0 -0.2705 -0.89177 -7.5932 4.9722 2.4396 1.5377 -0.17201 1.9029 8.9688 -0 0 -0 -0 0 -0 -0 0 -0 
0 0.95799 0 -0 0 -0 -0.26899 -0.89313 -7.5912 -0.16557 0.86168 1.9693 -0.16557 0.86168 1.9693 -0.13709 0.7242 1.654 -0 0 -0 1.2659 -1.8319 -5.0947 -0.24033 -0.12722 -1.5276 -0 0 -0 -0 0 -0 -0.75443 -1.8098 -1.5678 0.96559 0.52691 3.2654 -0 0 -0 -0.32146 5.8628 0.2523 -0.32146 5.8628 0.2523 -0.26899 -0.89313 -7.5912 -2.9314 0.0050584 2.6443 -2.252 -2.9209 2.3535 -0 0 -0 -0 0 -0 -0 0 -0 -0.26899 -0.89313 -7.5912 4.9738 2.4411 1.5319 -0.17385 1.9036 8.9743 -0 0 -0 -0 0 -0 -0 0 -0 
0 0.95799 0 -0 0 -0 -0.26724 -0.8947 -7.5888 -0.16499 0.85432 1.9686 -0.16499 0.85432 1.9686 -0.13662 0.71802 1.6535 -0 0 -0 1.2622 -1.8122 -5.0907 -0.24178 -0.12339 -1.525 -0 0 -0 -0 0 -0 -0.75292 -1.7848 -1.5714 0.96691 0.5249 3.2628 -0 0 -0 -0.32082 5.8891 0.23762 -0.32082 5.8891 0.23762 -0.26724 -0.8947 -7.5888 -2.931 0.0080027 2.6464 -2.2528 -2.9235 2.3497 -0 0 -0 -0 0 -0 -0 0 -0 -0.26724 -0.8947 -7.5888 4.9756 2.443 1.5252 -0.1761 1.9046 8.9806 -0 0 -0 -0 0 -0 -0 0 -0 
0 0.95799 0 -0 0 -0 -0.26531 -0.89641 -7.5861 -0.16439 0.84642 1.9679 -0.16439 0.84642 1.9679 -0.13613 0.71138 1.6529 -0 0 -0 1.2581 -1.791 -5.0865 -0.24348 -0.11918 -1.522 -0 0 -0 -0 0 -0 -0.75117 -1.758 -1.5754 0.96822 0.52259 3.2604 -0 0 -0 -0.32016 5.9176 0.22107 -0.32016 5.9176 0.22107 -0.26531 -0.89641 -7.5861 -2.9304 0.011267 2.6487 -2.2539 -2.9265 2.3455 -0 0 -0 -0 0 -0 -0 0 -0 -0.26531 -0.89641 -7.5861 4.9776 2.4449 1.5177 -0.1787 1.9059 8.9874 -0 0 -0 -0 0 -0 -0 0 -0 
0 0.95799 0 -0 0 -0 -0.26323 -0.89823 -7.5833 -0.16383 0.83838 1.9672 -0.16383 0.83838 1.9672 -0.13568 0.70463 1.6523 -0 0 -0 1.254 -1.7695 -5.0821 -0.24538 -0.1147 -1.5188 -0 0 -0 -0 0 -0 -0.74916 -1.7305 -1.5798 0.96939 0.51999 3.2586 -0 0 -0 -0.31951 5.9473 0.20325 -0.31951 5.9473 0.20325 -0.26323 -0.89823 -7.5833 -2.9297 0.014769 2.6511 -2.2551 -2.9296 2.3411 -0 0 -0 -0 0 -0 -0 0 -0 -0.26323 -0.89823 -7.5833 4.9798 2.447 1.5097 -0.18155 1.9074 8.9946 -0 0 -0 -0 0 -0 -0 0 -0 
0 0.95799 0 -0 0 -0 -0.261 -0.90015 -7.5802 -0.16336 0.83029 1.9665 -0.16336 0.83029 1.9665 -0.13531 0.69783 1.6517 -0 0 -0 1.2499 -1.7479 -5.0775 -0.2475 -0.10992 -1.5154 -0 0 -0 -0 0 -0 -0.74684 -1.7027 -1.5846 0.97044 0.51713 3.2574 -0 0 -0 -0.31889 5.9778 0.18434 -0.31889 5.9778 0.18434 -0.261 -0.90015 -7.5802 -2.9289 0.018451 2.6535 -2.2564 -2.9329 2.3365 -0 0 -0 -0 0 -0 -0 0 -0 -0.261 -0.90015 -7.5802 4.9821 2.4492 1.5013 -0.18461 1.9092 9.002 -0 0 -0 -0 0 -0 -0 0 -0 
0 0.95799 0 -0 0 -0 -0.25875 -0.90204 -7.5771 -0.16304 0.82262 1.9658 -0.16304 0.82262 1.9658 -0.13505 0.69138 1.6511 -0 0 -0 1.2461 -1.7274 -5.0732 -0.24977 -0.10506 -1.5121 -0 0 -0 -0 0 -0 -0.74421 -1.6762 -1.5894 0.9713 0.51411 3.257 -0 0 -0 -0.31831 6.0074 0.16542 -0.31831 6.0074 0.16542 -0.25875 -0.90204 -7.5771 -2.928 0.022084 2.6556 -2.2578 -2.9362 2.332 -0 0 -0 -0 0 -0 -0 0 -0 -0.25875 -0.90204 -7.5771 4.9843 2.4513 1.4928 -0.18768 1.9112 9.0092 -0 0 -0 -0 0 -0 -0 0 -0 
0 0.95799 0 -0 0 -0 -0.25644 -0.90389 -7.5739 -0.1629 0.81533 1.9651 -0.1629 0.81533 1.9651 -0.13496 0.68526 1.6505 -0 0 -0 1.2428 -1.7078 -5.0691 -0.2522 -0.10007 -1.5092 -0 0 -0 -0 0 -0 -0.74117 -1.6512 -1.5944 0.97206 0.51104 3.2572 -0 0 -0 -0.31776 6.036 0.14663 -0.31776 6.036 0.14663 -0.25644 -0.90389 -7.5739 -2.9272 0.02561 2.6574 -2.2591 -2.9394 2.3277 -0 0 -0 -0 0 -0 -0 0 -0 -0.25644 -0.90389 -7.5739 4.9865 2.4533 1.4845 -0.19068 1.9133 9.016 -0 0 -0 -0 0 -0 -0 0 -0 
